<?xml version="1.0" encoding="UTF-8" standalone="no"?>
<svg
   xmlns:dc="http://purl.org/dc/elements/1.1/"
   xmlns:cc="http://creativecommons.org/ns#"
   xmlns:rdf="http://www.w3.org/1999/02/22-rdf-syntax-ns#"
   xmlns:svg="http://www.w3.org/2000/svg"
   xmlns="http://www.w3.org/2000/svg"
   id="svg5087"
   version="1.1"
   viewBox="0 0 60.854164 89.95834"
   height="340"
   width="230">
  <defs
     id="defs5081" />
  <metadata
     id="metadata5084">
    <rdf:RDF>
      <cc:Work
         rdf:about="">
        <dc:format>image/svg+xml</dc:format>
        <dc:type
           rdf:resource="http://purl.org/dc/dcmitype/StillImage" />
        <dc:title></dc:title>
      </cc:Work>
    </rdf:RDF>
  </metadata>
  <g
     transform="translate(-25.072507,-196.52071)"
     id="layer1">
    <path
       id="path5643"
       d="m 27.65543,255.4529 v -28.44272 h 1.32291 1.32292 v 2.44538 2.44537 l 6.48104,-6.477 6.48105,-6.47701 2.91282,2.90379 2.91282,2.9038 5.95185,-5.94745 5.95184,-5.94744 1.7841,1.7841 1.78409,1.78409 8.66482,-8.66183 8.66481,-8.66183 0.72663,0.72662 0.72662,0.72662 -9.45463,9.45462 -9.45462,9.45463 -1.78463,-1.78463 -1.78463,-1.78463 -5.88812,5.88377 -5.88813,5.88377 -2.91345,-2.90441 -2.91345,-2.90443 -5.75205,5.75206 -5.75205,5.75205 H 54.84212 77.92626 V 220.2633 207.16642 h 1.32292 1.32292 v 25.40002 25.4 h -1.32292 -1.32292 v -10.98021 -10.98021 h -23.8125 -23.8125 v 23.94479 23.9448 h -1.32292 -1.32291 z m 3.70416,21.03437 v -5.29167 h 7.27604 7.27605 v 5.29167 5.29167 h -7.27605 -7.27604 z m 12.43542,0 v -3.175 h -5.15938 -5.15937 v 3.175 3.175 h 5.15937 5.15938 z m 2.91042,0 v -5.29167 h 7.40833 7.40833 v 5.29167 5.29167 h -7.40833 -7.40833 z m 12.7,0 v -3.175 h -5.29167 -5.29167 v 3.175 3.175 h 5.29167 5.29167 z m 2.91041,0 v -5.29167 h 7.27605 7.27604 v 5.29167 5.29167 h -7.27604 -7.27605 z m 12.43542,0 v -3.175 h -5.15937 -5.15938 v 3.175 3.175 h 5.15938 5.15937 z M 31.35959,265.11019 v -5.29167 h 7.27604 7.27605 v 5.29167 5.29166 h -7.27605 -7.27604 z m 12.43542,0 v -3.175 h -5.15938 -5.15937 v 3.175 3.175 h 5.15937 5.15938 z m 2.91042,0 v -5.29167 h 7.40833 7.40833 v 5.29167 5.29166 h -7.40833 -7.40833 z m 12.7,0 v -3.175 h -5.29167 -5.29167 v 3.175 3.175 h 5.29167 5.29167 z m 2.91041,0 v -5.29167 h 7.27605 7.27604 v 5.29167 5.29166 h -7.27604 -7.27605 z m 12.43542,0 v -3.175 h -5.15937 -5.15938 v 3.175 3.175 h 5.15938 5.15937 z M 31.35959,253.7331 v -5.29166 h 7.27604 7.27605 v 5.29166 5.29167 h -7.27605 -7.27604 z m 12.43542,0 v -3.175 h -5.15938 -5.15937 v 3.175 3.175 h 5.15937 5.15938 z m 2.91042,0 v -5.29166 h 7.40833 7.40833 v 5.29166 5.29167 h -7.40833 -7.40833 z m 12.7,0 v -3.175 h -5.29167 -5.29167 v 3.175 3.175 h 5.29167 5.29167 z m 2.91041,0 v -5.29166 h 7.27605 7.27604 v 5.29166 5.29167 h -7.27604 -7.27605 z m 12.43542,0 v -3.175 h -5.15937 -5.15938 v 3.175 3.175 h 5.15938 5.15937 z M 31.35959,242.35602 v -5.29167 h 7.27604 7.27605 v 5.29167 5.29167 h -7.27605 -7.27604 z m 12.43542,0 v -3.175 h -5.15938 -5.15937 v 3.175 3.175 h 5.15937 5.15938 z m 2.91042,0 v -5.29167 h 7.40833 7.40833 v 5.29167 5.29167 h -7.40833 -7.40833 z m 12.7,0 v -3.175 h -5.29167 -5.29167 v 3.175 3.175 h 5.29167 5.29167 z m 2.91041,0 v -5.29167 h 7.27605 7.27604 v 5.29167 5.29167 h -7.27604 -7.27605 z m 12.43542,0 v -3.175 h -5.15937 -5.15938 v 3.175 3.175 h 5.15938 5.15937 z"
       style="fill:#000000;stroke-width:0.26458335" />
  </g>
</svg>
